<svg width="48" height="48" viewBox="0 0 48 48" fill="none" xmlns="http://www.w3.org/2000/svg">
<path d="M14.6979 10.5313C15.6155 9.38534 17.336 8.86621 18.7119 8.83806C20.3598 8.80434 22.0038 8.96287 23.6511 8.94193C25.3655 8.92014 26.9545 8.50358 28.6264 8.21008C31.7216 7.66609 34.0622 9.25591 35.4053 12.2546C38.6169 19.4314 35.6765 28.4738 32.4321 35.1722C30.8901 38.3554 28.1698 43.4061 23.975 43.3159C19.0222 43.2094 16.2911 36.7893 15.2542 32.8887C13.5943 26.6447 10.0078 16.3847 14.6979 10.5313ZM14.6979 10.5313C13.6706 9.6315 11.9681 9.20626 10.6516 8.83919C9.32737 8.47045 7.83917 8.49813 6.51347 8.84256C1.71462 10.0938 0.748399 18.6803 1.23175 22.5202C1.67387 26.0381 3.16063 29.3998 4.45194 32.6699C5.78644 36.0483 7.40802 39.4644 9.97288 42.0896C10.6898 42.8236 11.725 43.756 12.8418 43.6752C14.7279 43.5385 17.6928 41.7825 18.9145 40.5472M34.1029 10.1468C36.5706 9.42986 39.208 8.48081 41.8234 8.81191C46.0463 9.34737 47.0679 13.5172 46.8533 17.2802C46.5103 23.2572 43.7195 29.2313 41.1489 34.5506C39.6947 37.5607 37.7632 41.7698 34.3276 42.7223C32.4892 43.2322 30.2593 41.8506 28.7008 41.0255M20.9231 8.81477C20.6219 7.55694 19.1721 3.48146 21.4475 3.12219C23.9726 3.01385 24.6786 7.17767 25.2802 8.81477" stroke="#171612" stroke-width="2" stroke-linecap="round" stroke-linejoin="round"/>
</svg>
