<svg width="48" height="48" viewBox="0 0 48 48" fill="none" xmlns="http://www.w3.org/2000/svg">
<path d="M44.2711 10.0039C44.9694 8.29836 46.4292 6.65152 46.9065 3.46339C46.9417 3.22782 46.9595 3.04218 46.96 2.90646C46.9611 2.61237 46.9083 2.31298 46.7762 2.04806C46.6405 1.77658 46.4017 1.49326 46.081 1.46279C45.8176 1.4374 45.6981 1.58569 45.5737 1.79323C45.5019 1.9131 45.448 2.02131 45.4122 2.11788C44.3207 5.05436 42.7828 6.70274 41.551 8.29836M42.5226 9.58695C44.7687 10.8238 46.0621 13.636 45.7986 16.124C45.1303 22.435 41.0248 26.5484 36.5586 30.6274C33.9704 32.9908 31.3459 35.2752 28.5268 37.367C22.5701 41.787 15.7847 45.3378 8.43607 46.6596C7.06835 46.9058 5.6688 47.0356 4.27845 46.9571C3.80536 46.9299 3.32411 46.8582 2.86609 46.7377C2.53337 46.6503 2.11864 46.5279 1.84486 46.3056C1.16571 45.7542 1.69219 45.0795 2.14775 44.6219C2.40878 44.3597 2.67251 44.1302 2.93894 43.9333C4.28303 42.9396 5.66124 42.0095 6.93996 40.9292C8.92183 39.2549 10.7917 37.4277 12.6523 35.6226C19.8845 28.6049 24.937 20.194 30.8773 12.1702C33.8261 8.18531 38.2729 7.24494 42.5226 9.58695Z" stroke="#171612" stroke-width="2" stroke-linecap="round" stroke-linejoin="round"/>
</svg>
