<svg width="48" height="48" viewBox="0 0 48 48" fill="none" xmlns="http://www.w3.org/2000/svg">
<path d="M13.2502 16.9094C12.7507 15.2492 10.3068 14.0795 9.66255 13.6691C8.8737 13.1667 8.38347 12.6104 7.75721 11.7097C6.93522 12.6012 6.61817 13.6311 6.5827 15.1766C6.54723 16.7221 5.95514 17.6858 4.57861 19.4166M13.3332 17.1692C13.7445 15.7654 13.9403 14.264 13.5377 12.8344C13.1547 11.474 12.6674 10.2111 12.7373 8.77452C13.7757 8.80212 14.6956 8.56992 15.5462 7.94935C16.4013 7.32628 17.053 7.21769 18.0504 6.99987M5.67864 17.7466C4.80854 15.5932 3.49486 13.4503 4.57861 10.4189C5.01426 9.20042 6.21965 7.96546 7.21451 7.20799C9.04112 5.98163 11.015 5.30252 13.2192 5.52581C15.5936 5.7685 16.5877 7.59057 18.8478 6.82479M15.7013 6.44398C20.3223 10.9451 23.9685 16.3268 28.5571 20.847C33.1578 25.3785 40.1601 27.7715 43.112 33.7293C45.2209 37.9825 43.454 43.7415 39.0687 45.7651C34.7021 47.7796 29.5367 47.1392 25.5195 44.9389C15.901 39.67 10.4118 27.5119 5.95685 17.9632M7.77332 6.04132C7.56758 5.82234 7.37284 5.59598 7.18912 5.36223C7.0054 5.12848 6.82987 4.87785 6.66253 4.61034C6.49516 4.34275 6.36117 4.11517 6.26057 3.92761C6.15999 3.74015 6.042 3.49614 5.9066 3.19559C5.77122 2.89513 5.6736 2.68067 5.61375 2.55221C5.55396 2.42365 5.46789 2.24827 5.35553 2.02607C5.24317 1.80386 5.15646 1.64684 5.09539 1.555C5.03441 1.46313 4.98664 1.39984 4.95211 1.36512C4.91767 1.33039 4.88294 1.30281 4.84794 1.2824C4.81284 1.26202 4.77554 1.24733 4.73604 1.23834C4.69651 1.22927 4.67453 1.22343 4.67012 1.22082C4.66573 1.21829 4.63481 1.22016 4.57737 1.22642C4.51994 1.23276 4.46686 1.2486 4.41812 1.27394C4.36946 1.29925 4.3145 1.34012 4.25324 1.39652C4.19198 1.45293 4.14122 1.50857 4.10097 1.56345C4.06071 1.61834 4.01314 1.70975 3.95825 1.83769C3.90344 1.96562 3.86439 2.08389 3.84109 2.19252C3.81778 2.30106 3.79759 2.4228 3.78052 2.55775C3.76345 2.69269 3.75691 2.8629 3.7609 3.06839C3.7649 3.27396 3.77582 3.44116 3.79366 3.56999C3.81139 3.69876 3.85393 3.8959 3.92128 4.16142C3.98865 4.42703 4.03921 4.60941 4.07294 4.70857C4.1067 4.80781 4.19068 5.01038 4.3249 5.31628C4.45923 5.62226 4.55005 5.82049 4.59734 5.911C4.64465 6.00159 4.78316 6.22621 5.01288 6.58488C5.24263 6.94363 5.4494 7.23854 5.6332 7.46959" stroke="#171612" stroke-width="2" stroke-linecap="round" stroke-linejoin="round"/>
</svg>
