<svg width="48" height="48" viewBox="0 0 48 48" fill="none" xmlns="http://www.w3.org/2000/svg">
<path d="M23.2451 4.68022C21.1492 10.331 16.1432 14.3844 12.9984 19.4007C9.50247 24.9792 7.19001 33.5826 12.3472 38.9259C15.9851 42.6927 21.2036 43.1062 25.8028 41.0064M16.3532 41.831C9.66319 43.7193 2.7083 38.9093 1.35817 32.2698C0.465696 27.881 1.46911 23.2771 4.1406 19.6615C6.83213 16.0179 10.8772 14.2958 14.7985 12.3126C17.2947 11.0502 19.4924 9.6407 21.4535 7.62964M28.4242 41.7239C30.4885 42.5405 33.3338 43.1604 35.5731 43.0579C39.1849 42.8919 43.049 41.2144 45.0096 38.0546C48.246 32.839 47.1948 25.6404 43.7644 20.7858C41.138 17.069 36.833 14.8265 33.2207 12.2154C30.8746 10.5202 28.6872 8.64735 26.6832 6.55515C26.5007 6.36472 24.9845 4.42238 24.7012 2.96434M21.4713 42.2504C19.7641 43.0875 18.2672 44.3914 17.0934 45.8705M23.0367 42.8174C22.2001 44.069 21.6537 45.4634 21.2211 46.8998M23.9225 42.7787C25.6806 43.5095 26.7944 44.8599 27.7768 46.4766M24.9286 42.2074C27.3701 42.395 29.2322 43.5197 31.077 45.0435M24.6541 1.2998C24.3462 2.27448 24.1438 2.9491 24.047 3.32364C22.818 8.08638 24.8144 12.567 25.2442 17.2932C25.5418 20.5663 24.423 23.5267 23.5405 26.6234C22.2321 31.2121 21.7649 39.2351 27.342 41.3324C31.4559 42.8795 36.2946 40.4172 38.7961 37.0936C44.9419 28.9328 36.7704 17.8341 31.5079 12.1753C28.797 9.26077 24.7555 5.54433 24.6541 1.2998Z" stroke="#171612" stroke-width="2" stroke-linecap="round" stroke-linejoin="round"/>
</svg>
