<svg width="48" height="48" viewBox="0 0 48 48" fill="none" xmlns="http://www.w3.org/2000/svg">
<path d="M25.4497 42.0812C26.1819 43.6477 27.9591 44.7968 29.5743 45.1175M24.3297 42.0574C24.1628 43.4986 24.61 45.1356 25.3792 46.3435M22.3689 41.9657C22.5279 43.0871 22.5464 44.4573 22.3689 45.57M21.4097 41.9398C20.3091 44.0252 19.1055 45.946 16.8838 46.9904M16.6 38.9139C12.309 34.5848 9.91241 27.8566 11.7772 21.85C12.6195 19.1352 14.4246 16.8763 16.4007 14.8877C16.6268 14.6602 17.4626 13.8473 18.9081 12.4489M17.9769 32.4096C17.4216 31.1568 17.1002 29.8319 16.8805 28.4843C16.5472 26.4391 16.7009 24.4517 17.0491 22.4129M27.1486 39.4693C31.1442 35.5494 33.8122 29.3033 32.8916 23.7173C32.1524 19.2377 29.5766 15.627 27.0765 11.988M32.9594 38.2935C36.5449 35.078 38.253 30.5757 38.9833 25.9156M21.5019 1.22656C20.2828 5.17586 17.1826 8.28605 14.1319 10.9998C11.0753 13.7188 7.6775 16.066 5.52308 19.6426C4.04852 22.0898 3.08741 24.9253 3.04487 27.7959C2.97954 32.2037 5.18841 36.2384 8.82444 38.7319C14.6717 42.7452 20.937 41.6021 27.5176 42.2055C35.8356 42.9871 44.4103 38.2979 44.923 28.6967C45.5774 16.4467 32.1021 14.3195 27.2024 5.19305C26.8234 4.89221 26.3625 4.49226 25.9065 4.29243C25.2279 3.9958 24.4447 4.08838 23.7949 3.67488C22.824 3.0507 22.3018 2.02462 21.5019 1.22656Z" stroke="#171612" stroke-width="2" stroke-linecap="round" stroke-linejoin="round"/>
</svg>
