<svg width="48" height="48" viewBox="0 0 48 48" fill="none" xmlns="http://www.w3.org/2000/svg">
<path d="M20.6111 29.1797C20.8033 29.1236 21.0126 29.0213 21.2389 28.8728C22.397 28.1119 22.9362 26.7238 23.4153 25.4834C23.6539 24.8657 23.9718 24.1419 24.5075 23.7173C25.0818 23.2613 25.9895 23.2708 26.6736 23.1947C28.1949 23.0258 29.5523 22.3311 30.2731 20.9189C30.4577 20.557 30.6289 20.1843 30.8413 19.8374C30.9449 19.795 31.0817 19.748 31.2516 19.6962C31.4215 19.6445 31.5965 19.5912 31.7766 19.5364C35.3096 18.4612 35.9817 14.0649 32.1243 12.5668C31.882 12.4727 31.7003 12.3943 31.5791 12.3316C31.4579 12.2689 31.3524 12.2098 31.2626 12.1544C31.2195 12.1023 31.2081 11.9364 31.2284 11.6567C31.2486 11.377 31.2924 11.0913 31.36 10.7996C31.4275 10.5078 31.4783 10.2534 31.5125 10.0364C31.6432 9.20549 31.5186 8.31687 31.0934 7.58795C30.9417 7.32809 30.6296 7.00483 30.1571 6.61816C28.7773 5.48882 26.8192 4.75413 25.1327 5.63492C24.7793 5.81944 24.4895 5.99387 24.2635 6.15821C24.0373 6.32255 23.879 6.43867 23.7886 6.50656C23.6982 6.57435 23.6316 6.62263 23.5887 6.65139C23.546 6.68015 23.4372 6.74586 23.2625 6.84854C23.1975 6.80187 23.1363 6.74969 23.0791 6.69198C23.0219 6.63428 22.9066 6.47766 22.7331 6.22214C22.5595 5.96671 22.4241 5.76319 22.3268 5.61158C22.2295 5.46006 22.1016 5.28595 21.943 5.08927C21.7844 4.89268 21.6135 4.70971 21.4303 4.54037C21.247 4.37103 21.0764 4.23229 20.9184 4.12414C20.7606 4.0159 20.4084 3.83876 19.8619 3.59277C17.5286 2.54209 15.7386 3.26315 13.9449 5.0276C13.4857 5.47924 13.0113 5.84955 12.5216 6.13855C12.2615 6.14986 12.0425 6.15123 11.8644 6.14265C10.4761 6.07501 9.64903 6.01278 8.37447 6.70386C7.68349 7.07847 7.29107 7.31786 7.1972 7.42205C6.5692 8.11975 6.30478 9.05481 5.95576 9.90785C5.87886 10.0956 5.82604 10.2246 5.7973 10.2948C5.76855 10.3652 5.73727 10.4274 5.70343 10.4816C5.6696 10.5359 5.59774 10.6285 5.48785 10.7594C5.37787 10.8904 5.21125 11.058 4.988 11.2622C4.76483 11.4665 4.39305 11.8054 3.87264 12.2788C3.35224 12.7522 2.91469 13.2036 2.55996 13.6329C2.20533 14.0622 1.96506 14.4391 1.83915 14.7636C1.30988 16.1269 1.83853 17.3428 2.78897 18.3753C2.88462 18.4791 3.01967 18.6221 3.19411 18.8042C3.36487 18.9824 3.56602 19.1722 3.67007 19.4016C3.69269 19.4514 3.70895 19.4977 3.71885 19.5405C3.72865 19.5833 3.71338 19.7402 3.67304 20.0111C3.39128 21.899 2.58776 24.2922 4.988 25.2927C5.85585 25.6543 6.75246 25.7327 7.66837 25.7945C7.85581 25.8072 8.00585 25.8207 8.11847 25.8348C8.23109 25.849 8.41858 25.9054 8.68095 26.0043C8.70649 26.0266 8.82504 26.2234 9.03662 26.5946C9.74843 27.844 10.2447 29.4842 11.7998 29.8743C11.9404 29.9094 12.0433 29.9299 12.1083 29.9358C13.0198 30.0189 13.7619 29.5187 14.3903 28.9052C14.5823 28.7176 15.2394 28.2141 15.4959 27.9164C15.9046 28.2222 16.0393 28.5689 16.481 28.8728C17.8136 29.7897 19.2802 29.5681 20.6111 29.1797ZM20.6111 29.1797C21.6066 29.4852 22.9303 30.3724 22.8452 32.0763C22.8071 32.2021 22.7073 32.4079 22.546 32.6938C22.3846 32.9798 22.1586 33.2627 21.868 33.5426C21.5774 33.8224 21.3832 34.0082 21.2854 34.1001C21.1876 34.1919 21.0791 34.2998 20.9599 34.4238C20.8407 34.5477 20.0657 35.0659 19.8897 35.2813C19.9412 35.7625 20.7112 35.9422 20.6793 36.7887C20.6683 37.0811 20.6361 37.3496 20.5826 37.5943C20.529 37.839 20.4267 38.0934 20.2758 38.3576C19.4048 39.8814 17.4932 40.5952 15.8395 40.799C15.39 40.8544 14.9352 40.817 14.4883 40.9021C14.0415 40.9874 13.9099 41.3364 13.7364 41.7083C13.1718 42.9184 12.5716 43.7713 11.097 43.8769C8.33481 44.0755 6.1885 42.3445 6.31686 39.7141C6.3349 39.3445 6.08136 39.1082 5.94282 38.8436C5.83661 38.8199 5.67814 38.7994 5.46741 38.7821C4.45559 38.6983 3.48634 38.6398 2.58122 38.1354C2.42063 38.046 2.1823 37.8076 1.86621 37.4205C0.542582 35.7984 0.993458 34.3704 1.93293 32.7216C1.9992 32.6053 2.20974 32.3657 2.21467 32.2258C2.21524 32.2096 2.06318 31.9293 1.75751 31.3806C0.183523 28.5581 1.50281 25.9863 3.98905 24.72M30.5242 20.8899C30.3232 26.6343 36.748 25.6606 37.9614 22.8234C38.2866 22.8116 38.65 22.8155 39.0516 22.835C42.2592 22.9902 47.6054 21.1453 46.7981 16.9664C46.5816 15.8462 45.8612 15.0992 45.0566 14.3704C45.0218 14.3388 44.9357 14.2588 44.7984 14.1304C44.7442 13.7704 44.7763 13.4068 44.7468 13.0455C44.5584 10.7396 43.169 8.6737 40.62 8.5614C39.8105 8.52425 38.9739 8.80054 38.1888 8.95372C38.0341 8.98389 37.9397 9.0011 37.9055 9.00534C37.8027 9.01816 37.8955 8.53801 37.9029 8.4945C37.9294 8.33704 37.9545 8.16689 37.9781 7.98407C38.4769 4.13068 31.3601 5.51577 31.3601 7.98405M20.2716 35.7763C22.1558 35.8346 23.9855 35.5727 25.8274 36.084C30.5296 37.3826 34.537 42.2923 38.1427 45.1845C38.2728 45.1547 38.401 45.1113 38.5312 45.0794C41.9744 44.2361 45.5953 41.1434 45.1568 37.3057C45.0852 36.6749 44.741 36.8454 44.2681 36.4875C44.2283 36.4573 44.1433 36.3951 44.0133 36.301C40.6517 33.8705 36.7645 30.2116 35.2944 26.245C35.1962 25.9799 35.131 25.7927 35.0991 25.6835C35.0671 25.5743 35.0464 25.5007 35.0367 25.4628C35.0272 25.4248 34.9879 25.269 34.9188 24.9956M23.4044 32.8483L23.4269 32.8451C25.6399 32.7982 29.1465 34.6931 30.8019 32.8451C30.489 31.4825 24.8067 27.2972 23.7716 26.7697M27.1698 23.5009C27.4521 23.9775 27.8679 24.9583 28.1927 25.4077C28.793 26.2385 30.3868 28.4794 31.7316 27.4219C32.1048 27.1276 32.2128 26.6246 32.2731 26.1764C32.3176 25.8457 32.3038 25.5032 32.288 25.1704" stroke="#171612" stroke-width="2" stroke-linecap="round" stroke-linejoin="round"/>
</svg>
