<svg width="48" height="48" viewBox="0 0 48 48" fill="none" xmlns="http://www.w3.org/2000/svg">
<path d="M35.6767 5.68745C35.9011 4.45823 37.0026 2.29014 38.0025 1.58641C38.758 1.05465 40.9661 1.89437 41.7695 2.32237M38.0025 6.68137C38.2521 6.38793 38.4696 6.05202 38.7106 5.74949C40.0318 4.09134 41.3784 2.17369 43.3064 1.20346C44.4146 0.645758 45.9802 1.44596 46.15 2.84088C46.262 3.76113 45.4132 4.72555 44.8886 5.22049M40.0528 8.99667C41.2091 8.21226 42.3275 7.33854 43.4188 6.46669C43.9187 6.06764 44.4232 5.65958 44.8886 5.22049M44.8886 5.22049C45.4333 6.00828 46.2568 6.66044 45.9063 7.78846C45.3479 9.20587 42.9769 10.1537 41.7104 10.7383M21.0622 29.9004C20.9877 29.8096 20.5292 29.3128 19.6865 28.4101M18.9417 39.6111C17.8881 38.9788 16.8956 38.2491 16.0161 37.3882C15.7909 37.168 15.2477 36.5834 14.3864 35.6346M20.4796 12.1557C21.9728 12.5964 23.7864 13.357 25.1156 14.1722C25.5271 14.4245 26.3956 15.0328 27.721 15.9972M1.32048 46.5036C7.04063 49.1853 26.6812 36.3471 35.432 26.9591C39.7513 22.324 42.7463 16.1017 40.7298 10.817C40.2397 9.53233 39.2584 8.52722 38.2096 7.62502C34.6455 4.55913 29.4727 5.79917 25.6732 7.76267C18.576 11.4313 12.2625 20.3269 8.22473 27.4954C5.08789 33.0664 -0.2413 43.1629 1.32048 46.5036Z" stroke="#171612" stroke-width="2" stroke-linecap="round" stroke-linejoin="round"/>
</svg>
