<svg width="48" height="48" viewBox="0 0 48 48" fill="none" xmlns="http://www.w3.org/2000/svg">
<path d="M28.5691 13.6733C27.7556 14.1978 26.8755 14.6605 25.973 15.0129C26.1249 13.8658 26.0427 12.5353 26.0178 11.3805C25.9813 9.68886 26.3203 8.16155 26.8355 6.56206C27.2423 5.29974 27.5086 4.04754 26.9622 2.82169C26.428 1.62159 25.3341 0.982917 24.0251 1.34348C22.1981 1.84671 20.8928 4.12437 19.8791 5.56951C19.004 6.81637 18.3952 8.17597 17.9512 9.63913C17.6787 10.5376 17.5021 11.4756 17.1276 12.3393C16.8693 12.9348 16.5337 13.4606 16.1488 13.9819C15.6115 14.7087 15.0077 15.4537 14.7344 16.3294C14.0592 18.4936 14.6821 21.514 15.0553 23.6575C14.4149 22.2099 13.1041 20.7625 12.4238 19.3361C11.8216 18.0723 11.1418 14.3315 8.88663 15.6366C7.64956 16.3498 7.07458 17.6782 6.63285 18.9718C5.89403 21.1327 5.55586 23.6831 6.64725 25.7807M28.5691 13.6733C30.5002 12.4277 32.1001 9.57696 34.6341 9.80732C35.0844 9.84852 35.5871 10.0387 35.9516 10.3133C38.7318 12.4078 38.8088 13.9304 36.0345 16.0226C35.4225 16.4842 34.8399 16.9965 34.3938 17.6247C34.1096 18.0243 33.8953 18.459 33.6856 18.9012C33.087 20.1633 32.6253 21.7769 32.2257 23.1157C33.1516 23.343 34.155 23.4376 35.1046 23.442C37.0509 23.4505 38.9767 22.8418 40.9156 23.268C42.8154 23.6856 45.0951 25.1254 46.0471 26.958C47.1524 29.0877 43.5571 30.8125 42.3535 31.3984C40.6232 32.2394 39.0175 32.6431 37.1379 32.6709C34.6687 32.7075 32.1795 32.385 29.7157 32.6527C28.7736 32.7549 27.8314 32.9129 26.8813 32.8859C25.4424 32.845 23.8069 32.3229 22.3639 32.3945C21.5508 33.3198 21.0329 34.3477 20.58 35.4816M28.5691 13.6733C29.2922 14.6179 30.7429 15.7225 31.6579 16.4868M20.58 35.4816C20.28 36.2318 19.9551 36.9744 19.3903 37.5673C18.6308 38.3655 17.6271 38.8174 16.6905 39.3625M20.58 35.4816C20.4929 35.4345 20.1688 34.8534 20.0789 34.8176C19.8586 34.7296 19.6499 34.5697 19.4512 34.442C19.2177 34.2918 18.9937 34.1249 18.7362 34.0199M16.6905 39.3625C15.5145 40.0468 14.6053 41.0359 13.7551 42.0872C12.5824 43.538 11.2933 45.4948 9.57294 46.337C8.8161 46.7081 8.09609 46.7175 7.28306 46.649C6.33209 46.5689 4.98556 47.0863 4.15999 46.6433C2.9651 45.9876 3.10544 44.7118 3.24736 43.5117C3.47777 41.5634 4.70014 39.9141 5.93447 38.4644C6.40771 37.9086 6.8471 37.3117 7.18426 36.6631C7.37286 36.3005 7.53508 35.9291 7.68076 35.5473C8.17661 34.2457 8.39864 32.8429 9.01774 31.5875C9.1367 31.3468 9.29691 31.1414 9.41799 30.9018C8.84814 28.9131 7.5846 27.5787 6.64725 25.7807M16.6905 39.3625C14.3852 38.6891 13.1967 36.6142 11.7347 34.8707C11.5565 34.6586 11.356 34.4679 11.1852 34.2496M6.64725 25.7807C7.87087 25.3641 9.54859 24.8 10.5187 23.9599M28.0799 32.8394C27.2896 31.4423 26.6159 29.7418 26.4282 28.1437C26.2237 26.3993 26.2347 24.6512 26.002 22.9075M35.5999 32.6558L35.4722 32.1557C34.9219 30.3463 35.0612 28.5224 35.3178 26.6859M17.4696 11.3805C18.8595 12.3826 20.2387 13.4461 21.9464 13.7907" stroke="#171612" stroke-width="2" stroke-linecap="round" stroke-linejoin="round"/>
</svg>
