<svg width="48" height="48" viewBox="0 0 48 48" fill="none" xmlns="http://www.w3.org/2000/svg">
<path d="M16.1978 12.7763C16.5098 14.0751 16.8604 14.4973 17.8747 15.3305M36.664 10.3076C36.8923 10.8367 37.1851 11.3443 37.5053 11.823C37.9512 12.4896 38.5372 12.96 39.1339 13.485M20.4165 38.3445C20.7029 38.7337 20.9998 39.115 21.3018 39.4921C22.1732 40.5801 22.8768 41.3268 24.1896 41.7888M6.30338 25.3648C6.78676 26.0072 7.10335 26.7654 7.63557 27.3847M34.31 25.2639C34.6164 25.7425 35.1348 26.15 35.6215 26.4865M20.0576 6.55066C20.3818 6.43137 20.8218 6.30077 21.3776 6.15889C24.5713 5.34376 27.8291 6.21553 31.0692 6.11627C34.0493 6.02418 37.0247 5.11765 40.0143 5.42288C41.6766 5.59206 43.15 6.2528 44.2399 7.54602C45.9759 9.60492 46.66 12.5653 46.8261 15.1693C47.0856 19.2401 46.42 23.2965 44.5992 26.951C42.856 30.4504 40.2235 33.3927 37.2287 35.8752C32.9424 39.4294 27.6773 42.044 22.0092 42.1569C18.7859 42.2218 15.5124 41.3562 12.649 39.8888C8.40253 37.712 3.88587 34.4625 2.57523 29.6326C2.4733 29.2569 2.38352 28.8796 2.31267 28.4968C1.94502 26.5024 1.35176 24.5706 1.13611 22.5441C0.771733 19.1201 1.38876 15.6971 3.93989 13.2454C6.41857 10.8625 9.58069 10.3507 12.7909 9.59152C15.3992 8.97334 17.5799 7.46254 20.0576 6.55066Z" stroke="#171612" stroke-width="2" stroke-linecap="round" stroke-linejoin="round"/>
</svg>
