<svg width="48" height="48" viewBox="0 0 48 48" fill="none" xmlns="http://www.w3.org/2000/svg">
<path d="M7.65561 9.65096C5.55831 11.2855 3.62203 13.0438 2.44659 15.491C1.13085 18.2286 0.944747 21.3783 1.24348 24.3623C1.58761 27.8058 2.5948 31.1819 4.40244 34.1424C5.93095 36.6466 7.9823 38.6532 10.5366 40.0941C16.4524 43.4276 23.7895 44.2325 30.3288 42.4732C34.9294 41.2359 39.3301 39.2428 42.3895 35.4446C45.6617 31.3815 47.7156 25.7627 46.5512 20.5251C45.3751 15.2351 40.6295 11.6269 35.944 9.50506C34.6917 8.93723 33.405 8.4438 32.1337 7.92074M29.1836 9.44023C31.2174 10.8252 32.9516 13.2547 35.3327 14.0945C36.0632 14.3527 37.7501 14.4894 38.5173 14.5665C36.9314 14.98 35.7512 14.9887 34.1067 15.0877C33.0448 15.0363 32.0874 14.9006 31.101 14.4854C29.3515 13.749 27.4328 12.1152 25.5566 11.8447C24.701 11.7213 23.4691 12.1443 22.5846 12.2956C20.2588 12.6933 18.2842 14.0242 16.6324 15.6568C15.9434 16.3378 15.2999 17.0834 14.7009 17.8443C14.3028 18.3501 14.0683 19.2904 14.0165 19.3434C14.1158 18.4107 14.1925 17.7772 14.2468 17.443C14.5273 15.7123 15.103 13.8592 16.3654 12.5949C17.1584 11.8008 18.1185 11.3203 19.0794 10.7758C17.8495 10.8361 16.6002 10.7741 15.3687 10.7887C13.5873 10.8101 11.8136 10.6602 10.0894 10.1877C8.63963 9.79045 7.27283 9.09676 6.09381 8.16432C5.37415 7.59477 4.79197 7.41874 5.95217 7.50418C6.33758 7.53256 6.79401 7.55215 7.32146 7.56296C10.4579 7.62723 13.5677 6.76164 16.7076 7.04999C18.7468 7.23664 20.6348 8.01933 22.6407 8.36055C22.9173 8.40763 23.4484 8.46871 24.2337 8.5438C25.1917 7.16512 28.419 6.58591 29.959 6.46245C32.3867 6.26747 34.7026 6.78843 37.0922 7.10328C37.6589 7.17778 38.2263 7.23907 38.7969 7.27512C38.1846 7.25783 37.219 7.38972 36.259 7.27512C33.5136 7.15782 31.4486 8.09175 29.1836 9.44023Z" stroke="#171612" stroke-width="2" stroke-linecap="round" stroke-linejoin="round"/>
</svg>
