<svg width="48" height="48" viewBox="0 0 48 48" fill="none" xmlns="http://www.w3.org/2000/svg">
<path d="M20.0322 9.69637C17.228 9.67566 15.1067 8.38409 12.3063 8.79856C6.05448 9.72383 3.6183 16.6398 2.98528 21.9358C2.85767 23.0022 2.79287 24.045 2.80274 25.1189C2.83796 28.953 4.82044 32.2109 6.73764 35.3923C8.79028 38.801 11.2356 43.1227 14.5898 45.4355C17.1863 47.2268 18.9706 46.0166 23.1149 45.4446C24.4933 45.4355 26.4212 45.7691 27.522 46.0166C31.4524 46.9004 33.4177 45.0046 36.1825 42.3562C41.1877 37.5624 45.8884 30.061 45.1253 22.7594C44.7276 18.9463 42.7777 14.8432 40.3829 11.8844C38.3854 9.41501 35.4274 8.6708 32.3781 8.82462C30.1573 8.93737 28.1227 9.5607 25.8945 9.5558C25.0467 9.55394 23.8848 9.44627 23.8465 9.44185M14.5963 12.0326C14.6091 12.0367 14.6848 12.0463 14.8234 12.0614C16.5014 12.2445 17.7088 13.4875 19.1912 14.1581C19.4061 14.2553 19.5948 14.3299 19.7572 14.382M19.7572 14.382C19.9195 14.4341 20.1148 14.4844 20.343 14.5329C23.3353 15.1701 25.8657 14.3051 28.2621 12.4771M19.7572 14.382C20.2226 10.0623 21.3538 6.28166 23.4723 2.83363C23.7899 2.31707 24.1681 1.8279 24.7417 1.57976C25.0915 1.42879 25.5502 1.34996 25.8831 1.58019C26.2596 1.83984 26.1283 2.38235 25.9963 2.75043C24.6716 6.45374 23.0644 10.547 23.3308 14.718" stroke="#171612" stroke-width="2" stroke-linecap="round" stroke-linejoin="round"/>
</svg>
