<svg width="48" height="48" viewBox="0 0 48 48" fill="none" xmlns="http://www.w3.org/2000/svg">
<path d="M41.7747 40.6964C33.4849 50.313 17.007 44.9489 13.8445 33.2852C12.2149 27.2789 11.6557 21.1298 7.5069 16.1834C5.66959 13.9928 3.25831 11.8051 2.65627 8.89605C1.9361 5.41538 4.26165 2.02044 7.81965 1.52873C13.1034 0.79984 17.4081 4.937 20.8292 8.35667C22.135 9.66212 23.5464 10.6749 25.3134 11.3032C32.0266 13.6901 38.2748 14.0222 42.904 20.186C44.2265 21.9471 45.3167 23.9375 45.7713 26.1079C46.8106 31.0599 45.0656 36.877 41.7747 40.6964Z" stroke="#171612" stroke-width="2" stroke-linecap="round" stroke-linejoin="round"/>
<path d="M2.95973 5.36035C0.959723 10.9604 2.92048 16.147 5.9351 21.2161C7.09428 23.1652 7.46855 25.2839 7.5795 27.506C7.82259 32.3744 8.29611 36.915 11.8745 40.6286C15.0957 43.9697 20.5571 45.6947 25.1197 46.2004C28.208 46.5425 32.4397 45.9468 35.3997 44.9604" stroke="#171612" stroke-width="2" stroke-linecap="round" stroke-linejoin="round"/>
<path d="M38.6809 24.476C43.4209 31.4246 36.0819 40.7544 27.9888 37.1433C22.2561 34.5867 18.5492 27.2365 22.1199 21.0404C26.2399 15.3604 35.1114 19.2418 38.6809 24.476Z" stroke="#171612" stroke-width="2" stroke-linecap="round" stroke-linejoin="round"/>
</svg>
