<svg width="48" height="48" viewBox="0 0 48 48" fill="none" xmlns="http://www.w3.org/2000/svg">
<path d="M5.28794 3.48367C5.64055 5.77546 5.76939 9.18695 5.84333 11.5003C5.85649 11.912 5.86272 12.2532 5.86201 12.5238C5.85928 13.4378 5.84399 14.3508 5.94296 15.2604C6.52484 20.5913 9.9719 26.0705 13.3852 30.0592C15.2312 32.2148 17.3189 34.1179 19.5632 35.8483C24.9717 40.0184 30.3912 40.7063 36.7231 41.0567M1.98078 5.02988C3.31159 4.30056 4.77568 3.6735 6.2019 3.12012M2.05855 5.15187C2.59603 7.37918 2.9461 9.44928 2.92328 11.6362C2.91172 12.744 2.65095 13.7202 2.25993 14.7515C2.15717 15.0226 2.01376 15.3977 1.82969 15.8767C1.48298 16.7784 1.21536 17.6435 1.20142 18.6138C1.15524 21.6893 2.41975 24.7719 3.4003 27.6285C3.50974 27.9475 3.67791 28.3957 3.90479 28.9731C4.57097 30.6697 5.37379 32.2964 6.38416 33.8185C8.50431 37.0124 11.335 39.9649 14.425 42.2772C17.5454 44.6134 21.6345 45.0793 25.3591 45.746C27.7766 46.1778 30.168 46.2201 32.6134 46.1058C34.5258 46.0153 39.4538 44.8694 38.198 42.1765C38.1365 42.0699 37.707 41.6144 36.9097 40.8097M6.14406 3.48367C6.41332 3.93024 6.55623 4.45891 6.69837 4.95732C6.77765 5.23502 6.8715 5.60172 6.97994 6.05745C7.08837 6.51319 7.17832 6.88694 7.2498 7.17869C7.52872 8.31717 7.80021 9.46242 8.23541 10.5533C8.79159 11.9463 9.6692 13.1541 10.4723 14.4085C10.8069 14.9312 11.0815 15.4828 11.3215 16.0539C11.8136 17.2233 12.2056 18.4306 12.6638 19.6131C14.3685 24.0097 17.2337 27.7826 20.4486 31.1847C22.1524 32.9871 24.1701 34.5098 26.4187 35.5681C29.7387 37.1317 33.1208 37.4506 36.1399 39.6899C36.5587 40.001 36.9591 40.3323 37.3638 40.6613M44.8174 28.5947C39.1221 29.9947 32.8887 31.9313 26.9766 29.6977C24.5233 28.7708 21.702 27.1397 18.8224 24.7897C16.882 23.2062 13.5658 20.2873 12.2527 18.5292M4.75546 3.76661C5.68295 3.56621 6.44455 4.10405 7.55627 3.22847C7.91527 3.55139 8.23195 4.31891 8.49254 4.72209C8.63781 4.94672 8.82005 5.24625 9.03928 5.62073C9.2585 5.99521 9.43921 6.30205 9.58138 6.54123C10.1362 7.47456 10.6862 8.41588 11.3663 9.26485C12.2352 10.3488 13.3382 11.1817 14.388 12.0762C14.8254 12.4489 15.2175 12.8634 15.5844 13.3046C16.3361 14.2077 17.0095 15.1715 17.7348 16.0954C20.4322 19.5302 23.9874 22.0989 27.7516 24.2446C29.7462 25.3813 31.9429 26.1852 34.2181 26.5155C37.5777 27.0039 40.6554 26.3728 43.9317 27.5412C44.3863 27.7037 44.8301 27.8891 45.2771 28.0712M24.426 34.4897C27.8181 35.7166 32.5603 36.2347 36.0351 35.8191C38.2902 35.5487 40.4168 34.9401 42.5488 34.1783C44.2157 33.5814 48.2644 31.2349 46.425 29.1883C46.3417 29.1105 45.8386 28.8229 44.9157 28.3254" stroke="#171612" stroke-width="2" stroke-linecap="round" stroke-linejoin="round"/>
</svg>
