<svg width="48" height="48" viewBox="0 0 48 48" fill="none" xmlns="http://www.w3.org/2000/svg">
<path d="M24.1936 1.8668C23.5204 2.0268 23.2584 2.09935 22.7551 2.55494C22.1604 3.09429 23.3758 3.48074 23.7497 3.53534M23.7497 3.53534C25.0214 16.5683 16.4237 29.3099 13.6608 31.4786M23.7497 3.53534C24.1345 3.59149 24.6667 3.65682 25.0214 3.4765M25.0214 3.4765C31.5518 9.69298 34.3215 23.5044 33.857 32.7943M25.0214 3.4765C25.9015 3.029 26.3005 1.53143 24.7604 1.66682C23.5433 1.99475 22.0626 3.06573 23.6522 3.92566M30.3993 32.8083C32.8845 33.6426 35.1795 33.495 37.1746 31.7539M10.8769 29.8157C12.0086 31.9166 14.0484 32.8105 16.349 32.7136M34.542 28.1062C34.4297 28.141 33.9865 28.2722 33.2121 28.4996C30.9601 29.1612 28.6933 30.0178 27.2753 32.006C24.5067 35.8844 25.4751 41.9893 29.2656 44.8743C33.2785 47.9302 40.3165 46.5359 43.6769 43.0441C48.8021 37.7185 44.6441 29.8796 38.133 28.3149C36.952 28.0312 35.7504 27.8043 34.542 28.1062ZM10.9241 27.552C12.9902 27.3585 14.6269 27.6806 16.4237 28.6344C17.4235 29.1638 18.3697 29.8732 19.1872 30.6542C22.3813 33.7113 22.8504 38.7484 20.1084 42.3431C17.0269 46.3855 10.551 47.1164 6.51606 44.2155C6.39542 44.1286 6.2235 43.9874 6.00033 43.7917C0.402188 38.8886 1.06417 30.8739 8.47259 28.1322C9.28918 27.8299 10.0576 27.6329 10.9241 27.552Z" stroke="#171612" stroke-width="2" stroke-linecap="round" stroke-linejoin="round"/>
</svg>
