<svg width="48" height="49" viewBox="0 0 48 49" fill="none" xmlns="http://www.w3.org/2000/svg">
<path d="M14.3417 10.1307C12.402 8.63288 12.2322 7.28583 8.51275 5.69128C8.2379 5.57354 8.01814 5.49277 7.85349 5.44898C7.49671 5.35409 7.11633 5.32304 6.75257 5.39925C6.3797 5.47773 5.95959 5.6779 5.82045 6.058C5.70573 6.37004 5.84775 6.56248 6.06016 6.77969C6.18284 6.90515 6.29711 7.005 6.40296 7.07926C9.62123 9.34023 9.81646 10.0424 11.3618 12.0473M18.0109 25.8995C19.4803 28.1782 21.5745 30.2217 24.5375 30.0432C25.2494 30 26.0383 29.8297 26.691 29.5383C30.7507 27.7277 31.9978 22.5792 29.2342 19.1005C28.8789 18.6533 28.4669 18.2389 28.0155 17.8885C24.0082 14.7803 17.7622 18.0013 17.5664 22.9971C17.5583 23.2056 17.5582 23.4017 17.5661 23.5853C17.6025 24.4233 17.7503 25.1217 18.0109 25.8995ZM27.1205 16.5488C29.9673 20.3613 32.1446 20.8474 34.1378 20.6423C38.9068 20.1527 41.0889 14.6994 38.5927 10.8676C36.1674 7.14483 30.3683 7.20957 27.9795 10.9201C26.8511 12.674 26.9094 14.5718 27.1205 16.5488ZM17.6724 26.0469C17.4908 25.9623 17.2711 25.8658 17.0132 25.7573C16.7554 25.6488 16.4791 25.5426 16.1844 25.4387C13.4424 24.4728 10.1114 24.5439 8.01786 26.837C4.77879 30.3888 6.7165 36.0189 11.1034 37.5098C16.5846 39.3717 21.033 34.1685 19.6615 28.7675C19.4105 27.779 18.6282 26.837 17.6724 26.0469ZM11.2265 24.8796C17.171 24.1468 19.0198 16.919 14.0345 13.5633C9.04929 10.2077 1.93654 15.3622 4.06053 20.6452C5.00946 23.3717 7.93889 25.285 11.2265 24.8796ZM15.827 14.9111C12.7922 9.70909 16.7638 5.09187 22.2554 5.92212C26.8792 6.62116 28.4975 10.0861 26.8792 13.5812C25.0899 17.4452 18.3724 19.2744 15.827 14.9111ZM28.9392 30.3398C28.6117 30.1938 28.3833 30.0998 28.2538 30.0576C28.1243 30.0156 28.0097 29.9764 27.9101 29.9401C24.8235 29.5974 22.8234 30.6253 22.5091 30.7661C22.1948 30.9068 21.9846 31.0127 21.8785 31.0837C21.7722 31.1547 21.6365 31.2604 21.4711 31.4007C19.0518 33.4529 18.0494 37.5923 20.2041 39.8763C27.9101 48.0448 39.8065 35.1855 28.9392 30.3398ZM32.3666 32.1921C38.5128 39.0786 49.4548 27.7835 41.2445 21.9096C38.7935 20.1554 35.5627 19.7678 33.0813 21.6577C29.9556 24.0402 29.9659 29.4996 32.3666 32.1921ZM32.7412 41.5768C32.3932 36.5236 37.879 32.6019 42.6545 35.1459C46.602 37.2503 47.2339 43.4281 43.2349 45.9293C39.4747 48.282 33.0982 46.792 32.7412 41.5768Z" stroke="#171612" stroke-width="2" stroke-linecap="round" stroke-linejoin="round"/>
</svg>
