<svg width="48" height="48" viewBox="0 0 48 48" fill="none" xmlns="http://www.w3.org/2000/svg">
<path d="M41.9198 7.52026C42.5702 7.86159 43.1777 8.36569 43.6035 8.97277C43.88 9.70865 43.7644 10.7168 43.8082 11.4859M1.83199 33.4993C4.55331 30.3126 5.89477 26.8507 6.94692 22.8407C8.03264 18.7027 9.25321 15.073 11.9207 11.6427C15.4934 7.04819 20.3355 3.72474 26.1376 2.77356C29.6562 2.19735 33.4905 2.23678 36.6815 4.00343C39.8877 5.77461 41.5457 9.3342 43.8384 12.0701C48.1036 20.6754 45.7983 29.2416 39.5959 36.3077C34.8138 41.7541 27.4356 45.0837 20.2508 45.4788C13.3907 45.8561 -0.699873 43.2535 1.83199 33.4993Z" stroke="#171612" stroke-width="2" stroke-linecap="round" stroke-linejoin="round"/>
</svg>
