<svg width="48" height="48" viewBox="0 0 48 48" fill="none" xmlns="http://www.w3.org/2000/svg">
<path d="M21.9601 8.01348C22.1065 7.48367 22.1174 7.59921 22.2731 7.06641C22.4288 6.53361 22.5585 6.10203 22.6624 5.77169C23.0631 4.49756 23.5907 3.35863 24.4035 2.29057C24.855 1.69721 26.8781 0.758839 26.6947 1.99073C26.5691 2.83503 26.391 3.67542 26.151 4.49489C26.1081 4.64177 26.0471 4.85515 25.9682 5.13505C25.8893 5.41483 25.7853 5.77254 25.6562 6.20817C25.527 6.64369 25.3668 7.45354 25.3115 7.64629M24.7821 7.56655C16.7103 7.71376 16.0656 15.8232 12.7587 21.2597C12.2335 22.1233 11.6614 22.9961 11.0114 23.7694C4.03698 32.1868 6.65126 44.9886 18.4395 46.3293C20.5887 46.5733 20.4289 46.5852 22.4734 46.3293C23.0297 46.3875 24.2038 46.3095 24.7843 46.3293C30.4831 47.5102 39.1332 45.0087 40.4035 38.6588C40.6206 37.5737 40.767 36.483 40.8059 35.377C41.0423 28.8285 35.6029 25.7038 33.1997 20.3056C32.718 19.2241 32.4491 18.0495 32.2024 16.897C31.3398 12.8623 29.5212 8.10534 24.7821 7.56655Z" stroke="#171612" stroke-width="2" stroke-linecap="round" stroke-linejoin="round"/>
</svg>
