<svg width="48" height="48" viewBox="0 0 48 48" fill="none" xmlns="http://www.w3.org/2000/svg">
<path d="M19.4 6.39961C19.59 4.74103 19.14 3.4168 18.1419 2.05583C18.0827 1.97512 18.0546 1.89094 18.0576 1.80331C18.56 1.59964 20.9153 3.18909 21.6399 3.64532C21.66 3.59514 22.0429 2.90379 22.4807 2.00096C22.4909 1.99799 23.4511 2.70983 24.1392 3.3141C24.3816 2.80679 24.7242 2.35277 25.0422 1.89102C25.5379 2.22208 25.8631 3.16818 26.1916 3.64532C26.5896 3.02582 27.1212 2.4065 27.6775 1.92475C27.8935 1.73764 28.0902 1.62926 28.2675 1.59961C28.5234 3.19801 28.1607 4.3797 28.7481 5.99936M19.3679 6.43172C18.52 6.43172 13.76 8.31961 11.6799 9.16571C4.31644 12.161 1.20222 23.4463 3.03186 32.3222C5.4891 44.2513 19.9499 47.9027 30.5392 45.7892C38.9881 44.1027 46.7556 36.5368 45.199 27.1947C43.7799 18.6714 43.7962 13.351 35.5952 9.16571C33.9997 8.35096 30.1404 7.39292 28.8563 6.05711" stroke="#171612" stroke-width="2" stroke-linecap="round" stroke-linejoin="round"/>
</svg>
