<svg width="48" height="48" viewBox="0 0 48 48" fill="none" xmlns="http://www.w3.org/2000/svg">
<path d="M25.6531 4.57208C15.0577 1.57501 7.05114 9.94883 3.97975 19.3754C1.71451 26.3353 1.19349 34.1688 2.68915 41.3523C3.36355 44.5913 7.19113 45.1336 9.95019 45.51C18.7492 46.7117 28.7613 43.7166 35.7176 38.2723C41.3471 33.8665 42.9692 26.6752 41.9282 19.9654M21.0441 10.8229C21.2319 10.4877 21.6502 9.9432 22.0172 9.78192M31.3925 21.298L31.4153 21.304C31.4159 21.2889 31.5531 21.1767 31.827 20.9674M12.0828 17.0389C12.1284 16.3761 12.4694 15.7875 12.7568 15.1873M21.8376 23.0723C22.0166 22.7745 22.1504 22.4531 22.3406 22.1542M10.2488 28.1054C10.1463 27.6845 10.352 27.1886 10.4455 26.7814M20.5531 35.9846C20.6372 35.9181 20.7861 35.8069 20.9997 35.6511M9.31116 38.6956C9.62715 38.4155 9.87863 37.9782 10.3072 37.874M32.2701 30.3944C32.2541 30.3536 32.229 30.441 31.5368 31.134M25.5998 2.24023C25.9379 2.85062 26.3948 3.34484 26.8172 3.82813C28.9258 6.2404 33.0417 5.92813 34.769 8.69192C35.2091 9.3956 35.4976 10.5652 35.7682 11.3453C37.7125 11.8835 39.3295 12.6287 40.5582 14.2404C42.0633 16.2147 42.6546 18.6167 45.1751 19.6382C44.5198 19.6382 43.1891 19.6382 42.4681 19.4277C40.2015 18.766 37.5643 17.4771 36.6489 15.1064C36.6489 15.6802 36.6712 16.4259 36.5955 17.309C36.4337 19.1967 35.9992 21.0637 35.6229 22.9158C35.4523 21.322 34.7129 19.7372 34.2005 18.2197C33.6487 16.5855 33.2202 14.5516 33.4923 12.8428C31.4605 13.4047 29.2799 15.4605 28.4937 17.4887C28.1894 14.8173 29.0566 11.1711 31.8111 9.97808C28.1239 9.51923 26.0228 6.0192 25.5998 2.24023Z" stroke="#171612" stroke-width="2" stroke-linecap="round" stroke-linejoin="round"/>
</svg>
