<svg width="48" height="48" viewBox="0 0 48 48" fill="none" xmlns="http://www.w3.org/2000/svg">
<path d="M4.07139 35.0461C8.41251 37.7424 11.7633 39.5592 16.7296 40.5647C24.3497 42.1061 32.9707 38.4715 37.7096 32.5726C39.8295 29.9328 41.2428 26.7246 41.8432 23.3979C42.9539 17.2434 40.2519 9.60621 36.1309 4.62048M20.67 33.5423L20.6156 33.6705L20.5964 33.8353C20.5792 33.9156 20.5708 34.079 20.5712 34.3256C20.5716 34.5721 20.5816 34.6801 20.601 34.6496C20.6204 34.619 20.6359 34.5823 20.6475 34.5394C20.6591 34.4964 20.6673 34.4576 20.672 34.423C20.6768 34.3884 20.7002 34.2767 20.7423 34.0877M29.3285 30.1551C29.3416 30.1984 29.3569 30.2571 29.3744 30.3311L29.4246 30.4266C29.4582 30.4803 29.52 30.5671 29.61 30.6871C29.7001 30.8069 29.7658 30.8881 29.807 30.9307C29.8482 30.9733 29.8884 31 29.9275 31.0107C29.9218 30.9261 29.8956 30.843 29.8489 30.7614C29.8022 30.6799 29.7188 30.5731 29.5985 30.4409L29.4929 30.2675M33.8568 23.1244C34.2151 23.1277 34.5635 23.0468 35.0197 23.0792M25.6682 19.9952C25.9028 20.0478 26.1872 20.0408 26.437 20.0346C26.5884 20.0308 26.5724 20.1192 26.85 20.0346M20.3234 24.1654C20.282 24.3719 20.1581 24.7437 20.1581 25.1155M1.2832 37.7898C8.47825 30.3178 16.8813 22.5375 24.2997 15.2903C28.9598 10.7361 34.0228 6.16217 38.4356 1.36914C44.0342 5.49414 46.5851 13.7292 46.3557 20.0301C46.1227 26.4311 44.6241 32.1629 39.484 37.2752C28.6992 48.0016 12.6134 46.9578 1.2832 37.7898ZM12.6629 30.7167C12.5847 30.934 12.4803 31.1423 12.3859 31.3528C12.273 31.6044 12.2097 31.7502 12.1959 31.7904C12.1821 31.8305 12.1666 31.8966 12.1495 31.9886C12.1504 32.0313 12.2879 31.8674 12.6629 30.7167ZM31.4864 14.5456C31.6005 14.3341 32.041 13.7815 32.1363 13.7237C32.2066 13.6809 32.5146 13.4753 32.5987 13.5196C32.3044 13.8568 31.8783 14.3252 31.4864 14.5456Z" stroke="#171612" stroke-width="2" stroke-linecap="round" stroke-linejoin="round"/>
</svg>
